<svg width="24" height="24" viewBox="0 0 24 24" fill="none" xmlns="http://www.w3.org/2000/svg">
<path fill-rule="evenodd" clip-rule="evenodd" d="M5 1C2.79086 1 1 2.79086 1 5V19C1 21.2091 2.79086 23 5 23H19C21.2091 23 23 21.2091 23 19V5C23 2.79086 21.2091 1 19 1H5ZM10.3696 4.5H5.47827V19.5H10.3696V16.2391H12V17.8696H13.6304V19.5H18.5217V14.6087H16.8913V12.9783H15.2609V11.0217H16.8913V9.3913H18.5217V4.5H13.6304V6.13043H12V7.76087H10.3696V4.5Z" fill="black"/>
<path d="M10.3696 4.5H5.47827V19.5H10.3696V16.2391H12V17.8696H13.6304V19.5H18.5217V14.6087H16.8913V12.9783H15.2609V11.0217H16.8913V9.3913H18.5217V4.5H13.6304V6.13043H12V7.76087H10.3696V4.5Z" fill="#53FC18"/>
</svg>
